<svg
    viewBox="0 0 139 28"
    fill="none"
    xmlns="http://www.w3.org/2000/svg"
  >
    <rect width="28" height="28" rx="7" fill="#60F948" />
    <path
      d="M20.9996 8.21518L15.834 6.83105L15.0357 9.81025L14.4499 11.9967L19.6155 13.3808L20.9996 8.21518Z"
      fill="black"
    />
    <path
      d="M7.62636 20.9361L7.03027 10.2571L12.3699 9.95912L12.668 15.2986L18.0074 15.0006L18.3054 20.3401L7.62636 20.9361Z"
      fill="black"
    />
    <path
      d="M44.624 22.24C43.264 22.24 42.096 22.008 41.12 21.544C40.16 21.08 39.288 20.384 38.504 19.456L40.664 17.296C41.16 17.952 41.736 18.464 42.392 18.832C43.048 19.184 43.848 19.36 44.792 19.36C45.64 19.36 46.312 19.192 46.808 18.856C47.32 18.52 47.576 18.056 47.576 17.464C47.576 16.952 47.432 16.536 47.144 16.216C46.856 15.896 46.472 15.624 45.992 15.4C45.528 15.176 45.008 14.976 44.432 14.8C43.872 14.608 43.304 14.392 42.728 14.152C42.168 13.912 41.648 13.616 41.168 13.264C40.704 12.896 40.328 12.432 40.04 11.872C39.752 11.296 39.608 10.576 39.608 9.712C39.608 8.688 39.856 7.816 40.352 7.096C40.848 6.376 41.528 5.824 42.392 5.44C43.256 5.056 44.232 4.864 45.32 4.864C46.472 4.864 47.512 5.08 48.44 5.512C49.368 5.944 50.128 6.504 50.72 7.192L48.56 9.352C48.064 8.808 47.552 8.408 47.024 8.152C46.512 7.896 45.928 7.768 45.272 7.768C44.52 7.768 43.928 7.912 43.496 8.2C43.064 8.488 42.848 8.904 42.848 9.448C42.848 9.912 42.992 10.288 43.28 10.576C43.568 10.864 43.944 11.112 44.408 11.32C44.888 11.528 45.408 11.728 45.968 11.92C46.544 12.112 47.112 12.328 47.672 12.568C48.248 12.808 48.768 13.12 49.232 13.504C49.712 13.888 50.096 14.384 50.384 14.992C50.672 15.584 50.816 16.32 50.816 17.2C50.816 18.768 50.264 20 49.16 20.896C48.056 21.792 46.544 22.24 44.624 22.24ZM60.4481 22L55.9601 16.024L60.4241 10.408H64.0481L58.8161 16.744L58.9361 15.208L64.2881 22H60.4481ZM53.0561 22V4.648H56.2001V22H53.0561ZM65.3139 22V10.408H68.4819V22H65.3139ZM66.8979 8.536C66.3859 8.536 65.9619 8.368 65.6259 8.032C65.2899 7.68 65.1219 7.248 65.1219 6.736C65.1219 6.24 65.2899 5.816 65.6259 5.464C65.9619 5.112 66.3859 4.936 66.8979 4.936C67.4259 4.936 67.8499 5.112 68.1699 5.464C68.5059 5.816 68.6739 6.24 68.6739 6.736C68.6739 7.248 68.5059 7.68 68.1699 8.032C67.8499 8.368 67.4259 8.536 66.8979 8.536ZM79.067 22V15.352C79.067 14.664 78.851 14.104 78.419 13.672C77.987 13.24 77.427 13.024 76.739 13.024C76.291 13.024 75.891 13.12 75.539 13.312C75.187 13.504 74.907 13.776 74.699 14.128C74.507 14.48 74.411 14.888 74.411 15.352L73.187 14.728C73.187 13.816 73.379 13.024 73.763 12.352C74.163 11.664 74.707 11.128 75.395 10.744C76.099 10.36 76.891 10.168 77.771 10.168C78.619 10.168 79.379 10.384 80.051 10.816C80.723 11.232 81.251 11.784 81.635 12.472C82.019 13.144 82.211 13.872 82.211 14.656V22H79.067ZM71.267 22V10.408H74.411V22H71.267ZM87.3116 22V19.096H91.6076C92.6956 19.096 93.6476 18.872 94.4636 18.424C95.2796 17.96 95.9116 17.312 96.3596 16.48C96.8236 15.648 97.0556 14.664 97.0556 13.528C97.0556 12.424 96.8236 11.464 96.3596 10.648C95.8956 9.816 95.2556 9.176 94.4396 8.728C93.6236 8.264 92.6796 8.032 91.6076 8.032H87.2396V5.128H91.6556C92.9036 5.128 94.0556 5.336 95.1116 5.752C96.1836 6.168 97.1116 6.76 97.8956 7.528C98.6956 8.28 99.3116 9.168 99.7436 10.192C100.192 11.216 100.416 12.336 100.416 13.552C100.416 14.768 100.192 15.896 99.7436 16.936C99.3116 17.96 98.7036 18.856 97.9196 19.624C97.1356 20.376 96.2076 20.96 95.1356 21.376C94.0796 21.792 92.9356 22 91.7036 22H87.3116ZM85.0796 22V5.128H88.3436V22H85.0796ZM108.217 22.24C107.001 22.24 105.921 21.984 104.977 21.472C104.033 20.944 103.281 20.224 102.721 19.312C102.177 18.4 101.905 17.36 101.905 16.192C101.905 15.04 102.169 14.016 102.697 13.12C103.241 12.208 103.977 11.488 104.905 10.96C105.833 10.416 106.865 10.144 108.001 10.144C109.121 10.144 110.105 10.4 110.953 10.912C111.817 11.408 112.489 12.096 112.969 12.976C113.465 13.84 113.713 14.824 113.713 15.928C113.713 16.136 113.697 16.352 113.665 16.576C113.649 16.784 113.609 17.024 113.545 17.296L103.801 17.32V14.968L112.081 14.944L110.809 15.928C110.777 15.24 110.649 14.664 110.425 14.2C110.217 13.736 109.905 13.384 109.489 13.144C109.089 12.888 108.593 12.76 108.001 12.76C107.377 12.76 106.833 12.904 106.369 13.192C105.905 13.464 105.545 13.856 105.289 14.368C105.049 14.864 104.929 15.456 104.929 16.144C104.929 16.848 105.057 17.464 105.313 17.992C105.585 18.504 105.969 18.904 106.465 19.192C106.961 19.464 107.537 19.6 108.193 19.6C108.785 19.6 109.321 19.504 109.801 19.312C110.281 19.104 110.697 18.8 111.049 18.4L112.897 20.248C112.337 20.904 111.649 21.4 110.833 21.736C110.033 22.072 109.161 22.24 108.217 22.24ZM121.13 22.24C119.946 22.24 118.882 21.976 117.938 21.448C116.994 20.92 116.25 20.2 115.706 19.288C115.162 18.376 114.89 17.352 114.89 16.216C114.89 15.064 115.162 14.032 115.706 13.12C116.25 12.208 116.994 11.488 117.938 10.96C118.898 10.416 119.962 10.144 121.13 10.144C122.042 10.144 122.882 10.312 123.65 10.648C124.418 10.984 125.082 11.464 125.642 12.088L123.626 14.128C123.322 13.792 122.954 13.536 122.522 13.36C122.106 13.184 121.642 13.096 121.13 13.096C120.554 13.096 120.034 13.232 119.57 13.504C119.122 13.76 118.762 14.12 118.49 14.584C118.234 15.032 118.106 15.568 118.106 16.192C118.106 16.8 118.234 17.344 118.49 17.824C118.762 18.288 119.122 18.656 119.57 18.928C120.034 19.184 120.554 19.312 121.13 19.312C121.658 19.312 122.13 19.224 122.546 19.048C122.978 18.856 123.346 18.584 123.65 18.232L125.69 20.272C125.098 20.912 124.418 21.4 123.65 21.736C122.882 22.072 122.042 22.24 121.13 22.24ZM134.862 22L130.374 16.024L134.838 10.408H138.462L133.23 16.744L133.35 15.208L138.702 22H134.862ZM127.47 22V4.648H130.614V22H127.47Z"
      fill="#FBF8FF"
    />
  </svg>
